<mxfile host="Electron" agent="Mozilla/5.0 (X11; Linux x86_64) AppleWebKit/537.36 (KHTML, like Gecko) draw.io/24.7.8 Chrome/128.0.6613.120 Electron/32.1.0 Safari/537.36" version="24.7.8">
  <diagram name="Page-1" id="OlGZkpxojUD_AP5KmQLQ">
    <mxGraphModel dx="1219" dy="1237" grid="1" gridSize="10" guides="1" tooltips="1" connect="1" arrows="1" fold="1" page="1" pageScale="1" pageWidth="827" pageHeight="1169" background="#444444" math="0" shadow="0">
      <root>
        <mxCell id="0" />
        <mxCell id="1" parent="0" />
        <mxCell id="v0S2vT5wZ2QxvqDgRi7f-3" style="edgeStyle=orthogonalEdgeStyle;rounded=0;orthogonalLoop=1;jettySize=auto;html=1;entryX=0.5;entryY=0;entryDx=0;entryDy=0;fontFamily=monospace;spacingLeft=0;fontSize=15;fontColor=#FFFFFF;" parent="1" source="v0S2vT5wZ2QxvqDgRi7f-1" target="v0S2vT5wZ2QxvqDgRi7f-2" edge="1">
          <mxGeometry relative="1" as="geometry" />
        </mxCell>
        <mxCell id="xnmgnFg0bWBNyFiT3FRn-1" value="&lt;font style=&quot;font-size: 15px;&quot; face=&quot;monospace&quot;&gt;(&lt;/font&gt;" style="edgeLabel;html=1;align=center;verticalAlign=middle;resizable=0;points=[];labelBackgroundColor=#444444;fontColor=#ffffff;" parent="v0S2vT5wZ2QxvqDgRi7f-3" vertex="1" connectable="0">
          <mxGeometry x="-0.1538" relative="1" as="geometry">
            <mxPoint as="offset" />
          </mxGeometry>
        </mxCell>
        <mxCell id="v0S2vT5wZ2QxvqDgRi7f-5" style="edgeStyle=orthogonalEdgeStyle;rounded=0;orthogonalLoop=1;jettySize=auto;html=1;exitX=1;exitY=0.5;exitDx=0;exitDy=0;fontFamily=monospace;spacingLeft=0;fontSize=15;fontColor=#FFFFFF;" parent="1" source="v0S2vT5wZ2QxvqDgRi7f-1" target="v0S2vT5wZ2QxvqDgRi7f-4" edge="1">
          <mxGeometry relative="1" as="geometry">
            <Array as="points">
              <mxPoint x="150" y="129" />
              <mxPoint x="150" y="135" />
            </Array>
          </mxGeometry>
        </mxCell>
        <mxCell id="v0S2vT5wZ2QxvqDgRi7f-37" value="E" style="edgeLabel;html=1;align=center;verticalAlign=middle;resizable=0;points=[];rounded=0;fontFamily=monospace;spacingLeft=0;fontSize=15;labelBackgroundColor=#444444;fontColor=#FFFFFF;" parent="v0S2vT5wZ2QxvqDgRi7f-5" vertex="1" connectable="0">
          <mxGeometry x="-0.1" y="1" relative="1" as="geometry">
            <mxPoint x="9" y="1" as="offset" />
          </mxGeometry>
        </mxCell>
        <mxCell id="v0S2vT5wZ2QxvqDgRi7f-7" style="rounded=0;orthogonalLoop=1;jettySize=auto;html=1;exitX=1.001;exitY=0.02;exitDx=0;exitDy=0;entryX=0;entryY=0.25;entryDx=0;entryDy=0;fontFamily=monospace;spacingLeft=0;fontSize=15;fontColor=#FFFFFF;exitPerimeter=0;edgeStyle=orthogonalEdgeStyle;" parent="1" source="v0S2vT5wZ2QxvqDgRi7f-1" target="v0S2vT5wZ2QxvqDgRi7f-6" edge="1">
          <mxGeometry relative="1" as="geometry">
            <Array as="points">
              <mxPoint x="150" y="44" />
              <mxPoint x="150" y="55" />
            </Array>
          </mxGeometry>
        </mxCell>
        <mxCell id="v0S2vT5wZ2QxvqDgRi7f-30" value="F" style="edgeLabel;html=1;align=center;verticalAlign=middle;resizable=0;points=[];rounded=0;fontFamily=monospace;spacingLeft=0;fontSize=15;labelBackgroundColor=#444444;fontColor=#FFFFFF;" parent="v0S2vT5wZ2QxvqDgRi7f-7" vertex="1" connectable="0">
          <mxGeometry x="0.1643" y="-1" relative="1" as="geometry">
            <mxPoint as="offset" />
          </mxGeometry>
        </mxCell>
        <mxCell id="v0S2vT5wZ2QxvqDgRi7f-11" style="edgeStyle=orthogonalEdgeStyle;rounded=0;orthogonalLoop=1;jettySize=auto;html=1;exitX=1;exitY=0.75;exitDx=0;exitDy=0;entryX=0;entryY=0.14;entryDx=0;entryDy=0;entryPerimeter=0;fontFamily=monospace;spacingLeft=0;fontSize=15;fontColor=#FFFFFF;" parent="1" source="v0S2vT5wZ2QxvqDgRi7f-1" target="v0S2vT5wZ2QxvqDgRi7f-10" edge="1">
          <mxGeometry relative="1" as="geometry">
            <Array as="points">
              <mxPoint x="155.8813559322034" y="214.30838235294124" />
            </Array>
          </mxGeometry>
        </mxCell>
        <mxCell id="v0S2vT5wZ2QxvqDgRi7f-36" value="a" style="edgeLabel;html=1;align=center;verticalAlign=middle;resizable=0;points=[];rounded=0;fontFamily=monospace;spacingLeft=0;fontSize=15;labelBackgroundColor=#444444;fontColor=#FFFFFF;" parent="v0S2vT5wZ2QxvqDgRi7f-11" vertex="1" connectable="0">
          <mxGeometry x="0.3957" y="-3" relative="1" as="geometry">
            <mxPoint y="-3" as="offset" />
          </mxGeometry>
        </mxCell>
        <mxCell id="v0S2vT5wZ2QxvqDgRi7f-31" style="rounded=0;orthogonalLoop=1;jettySize=auto;html=1;exitX=0;exitY=0.5;exitDx=0;exitDy=0;startArrow=classic;startFill=1;endArrow=none;endFill=0;fontFamily=monospace;spacingLeft=0;fontSize=15;fontColor=#FFFFFF;" parent="1" source="v0S2vT5wZ2QxvqDgRi7f-1" edge="1">
          <mxGeometry relative="1" as="geometry">
            <mxPoint x="10" y="129" as="targetPoint" />
          </mxGeometry>
        </mxCell>
        <mxCell id="v0S2vT5wZ2QxvqDgRi7f-52" style="edgeStyle=orthogonalEdgeStyle;rounded=0;orthogonalLoop=1;jettySize=auto;html=1;exitX=0.75;exitY=1;exitDx=0;exitDy=0;fontFamily=monospace;spacingLeft=0;fontSize=15;fontColor=#FFFFFF;" parent="1" source="v0S2vT5wZ2QxvqDgRi7f-1" target="v0S2vT5wZ2QxvqDgRi7f-8" edge="1">
          <mxGeometry relative="1" as="geometry">
            <Array as="points">
              <mxPoint x="128" y="232" />
              <mxPoint x="184" y="232" />
              <mxPoint x="184" y="341" />
            </Array>
          </mxGeometry>
        </mxCell>
        <mxCell id="dsQuT1RgJaNSiDKjmoi5-3" value="&lt;font style=&quot;font-size: 15px;&quot;&gt;T&lt;/font&gt;" style="edgeLabel;html=1;align=center;verticalAlign=middle;resizable=0;points=[];labelBackgroundColor=#444444;fontFamily=monospace;fontSize=15;" parent="v0S2vT5wZ2QxvqDgRi7f-52" vertex="1" connectable="0">
          <mxGeometry x="-0.5923" relative="1" as="geometry">
            <mxPoint as="offset" />
          </mxGeometry>
        </mxCell>
        <mxCell id="v0S2vT5wZ2QxvqDgRi7f-1" value="&lt;div style=&quot;font-size: 15px;&quot;&gt;S0&lt;/div&gt;&lt;div style=&quot;text-align: left; font-size: 15px;&quot;&gt;&lt;br style=&quot;font-size: 15px;&quot;&gt;&lt;/div&gt;&lt;div style=&quot;text-align: left; font-size: 15px;&quot;&gt;S = • E&lt;/div&gt;&lt;div style=&quot;text-align: left; font-size: 15px;&quot;&gt;&lt;span style=&quot;--darkreader-inline-bgcolor: #292b2a; font-size: 15px; background-color: rgb(68, 68, 68);&quot; data-darkreader-inline-bgcolor=&quot;&quot;&gt;E = • E + T&lt;/span&gt;&lt;/div&gt;&lt;div style=&quot;text-align: left; font-size: 15px;&quot;&gt;&lt;span style=&quot;--darkreader-inline-bgcolor: #292b2a; font-size: 15px; background-color: rgb(74, 74, 74);&quot; data-darkreader-inline-bgcolor=&quot;&quot;&gt;E = • T&lt;/span&gt;&lt;/div&gt;&lt;div style=&quot;text-align: left; font-size: 15px;&quot;&gt;&lt;span style=&quot;--darkreader-inline-bgcolor: #464846; font-size: 15px; background-color: rgb(85, 85, 85);&quot; data-darkreader-inline-bgcolor=&quot;&quot;&gt;T = • T * F&lt;/span&gt;&lt;/div&gt;&lt;div style=&quot;text-align: left; font-size: 15px;&quot;&gt;&lt;span style=&quot;font-size: 15px; background-color: rgb(119, 119, 119);&quot;&gt;T = • F&lt;/span&gt;&lt;/div&gt;&lt;div style=&quot;text-align: left; font-size: 15px;&quot;&gt;&lt;span style=&quot;font-size: 15px; background-color: rgb(153, 153, 153);&quot;&gt;F = • a&lt;/span&gt;&lt;/div&gt;&lt;div style=&quot;text-align: left; font-size: 15px;&quot;&gt;&lt;span style=&quot;font-size: 15px; background-color: rgb(170, 170, 170);&quot;&gt;F = • ( E )&lt;/span&gt;&lt;br style=&quot;font-size: 15px;&quot;&gt;&lt;/div&gt;" style="rounded=0;whiteSpace=wrap;html=1;fontFamily=monospace;spacingLeft=0;fontSize=15;fillColor=#333333;fontColor=#FFFFFF;spacing=2;labelPosition=center;verticalLabelPosition=middle;align=center;verticalAlign=top;" parent="1" vertex="1">
          <mxGeometry x="44.69" y="40" width="111.19" height="178.48" as="geometry" />
        </mxCell>
        <mxCell id="v0S2vT5wZ2QxvqDgRi7f-9" style="rounded=0;orthogonalLoop=1;jettySize=auto;html=1;entryX=0;entryY=0.5;entryDx=0;entryDy=0;fontFamily=monospace;spacingLeft=0;fontSize=15;fontColor=#FFFFFF;exitX=1;exitY=0.5;exitDx=0;exitDy=0;edgeStyle=orthogonalEdgeStyle;" parent="1" source="v0S2vT5wZ2QxvqDgRi7f-2" target="v0S2vT5wZ2QxvqDgRi7f-8" edge="1">
          <mxGeometry relative="1" as="geometry">
            <Array as="points">
              <mxPoint x="156" y="358" />
            </Array>
          </mxGeometry>
        </mxCell>
        <mxCell id="v0S2vT5wZ2QxvqDgRi7f-43" value="T" style="edgeLabel;html=1;align=center;verticalAlign=middle;resizable=0;points=[];rounded=0;fontFamily=monospace;spacingLeft=0;fontSize=15;labelBackgroundColor=#444444;fontColor=#FFFFFF;" parent="v0S2vT5wZ2QxvqDgRi7f-9" vertex="1" connectable="0">
          <mxGeometry x="0.25" y="-5" relative="1" as="geometry">
            <mxPoint x="-5" y="-7" as="offset" />
          </mxGeometry>
        </mxCell>
        <mxCell id="v0S2vT5wZ2QxvqDgRi7f-12" style="edgeStyle=orthogonalEdgeStyle;rounded=0;orthogonalLoop=1;jettySize=auto;html=1;entryX=0;entryY=0.75;entryDx=0;entryDy=0;fontFamily=monospace;spacingLeft=0;fontSize=15;fontColor=#FFFFFF;" parent="1" source="v0S2vT5wZ2QxvqDgRi7f-2" target="v0S2vT5wZ2QxvqDgRi7f-10" edge="1">
          <mxGeometry relative="1" as="geometry">
            <Array as="points">
              <mxPoint x="140" y="257" />
            </Array>
          </mxGeometry>
        </mxCell>
        <mxCell id="v0S2vT5wZ2QxvqDgRi7f-38" value="a" style="edgeLabel;html=1;align=center;verticalAlign=middle;resizable=0;points=[];rounded=0;fontFamily=monospace;spacingLeft=0;fontSize=15;labelBackgroundColor=#444444;fontColor=#FFFFFF;" parent="v0S2vT5wZ2QxvqDgRi7f-12" vertex="1" connectable="0">
          <mxGeometry x="0.5294" relative="1" as="geometry">
            <mxPoint x="-10" y="-1" as="offset" />
          </mxGeometry>
        </mxCell>
        <mxCell id="v0S2vT5wZ2QxvqDgRi7f-27" style="edgeStyle=orthogonalEdgeStyle;rounded=0;orthogonalLoop=1;jettySize=auto;html=1;exitX=1;exitY=0.75;exitDx=0;exitDy=0;entryX=0;entryY=0.25;entryDx=0;entryDy=0;fontFamily=monospace;spacingLeft=0;fontSize=15;fontColor=#FFFFFF;" parent="1" source="v0S2vT5wZ2QxvqDgRi7f-2" target="v0S2vT5wZ2QxvqDgRi7f-25" edge="1">
          <mxGeometry relative="1" as="geometry">
            <Array as="points">
              <mxPoint x="156" y="424" />
            </Array>
          </mxGeometry>
        </mxCell>
        <mxCell id="v0S2vT5wZ2QxvqDgRi7f-44" value="E" style="edgeLabel;html=1;align=center;verticalAlign=middle;resizable=0;points=[];rounded=0;fontFamily=monospace;spacingLeft=0;fontSize=15;labelBackgroundColor=#444444;fontColor=#FFFFFF;" parent="v0S2vT5wZ2QxvqDgRi7f-27" vertex="1" connectable="0">
          <mxGeometry x="0.1324" y="-2" relative="1" as="geometry">
            <mxPoint y="-3" as="offset" />
          </mxGeometry>
        </mxCell>
        <mxCell id="v0S2vT5wZ2QxvqDgRi7f-32" style="edgeStyle=orthogonalEdgeStyle;rounded=0;orthogonalLoop=1;jettySize=auto;html=1;exitX=0;exitY=0.25;exitDx=0;exitDy=0;entryX=0.25;entryY=0;entryDx=0;entryDy=0;fontFamily=monospace;spacingLeft=0;fontSize=15;fontColor=#FFFFFF;" parent="1" source="v0S2vT5wZ2QxvqDgRi7f-2" target="v0S2vT5wZ2QxvqDgRi7f-6" edge="1">
          <mxGeometry relative="1" as="geometry">
            <Array as="points">
              <mxPoint x="16.898305084745765" y="319.93720588235306" />
              <mxPoint x="16.898305084745765" y="10" />
              <mxPoint x="406.0508474576271" y="10" />
            </Array>
          </mxGeometry>
        </mxCell>
        <mxCell id="v0S2vT5wZ2QxvqDgRi7f-33" value="F" style="edgeLabel;html=1;align=center;verticalAlign=middle;resizable=0;points=[];rounded=0;fontFamily=monospace;spacingLeft=0;fontSize=15;labelBackgroundColor=#444444;fontColor=#FFFFFF;" parent="v0S2vT5wZ2QxvqDgRi7f-32" vertex="1" connectable="0">
          <mxGeometry x="0.5834" relative="1" as="geometry">
            <mxPoint x="1" as="offset" />
          </mxGeometry>
        </mxCell>
        <mxCell id="v0S2vT5wZ2QxvqDgRi7f-2" value="&lt;div style=&quot;font-size: 15px;&quot;&gt;S5&lt;/div&gt;&lt;div align=&quot;left&quot; style=&quot;font-size: 15px;&quot;&gt;&lt;br style=&quot;font-size: 15px;&quot;&gt;&lt;/div&gt;&lt;div align=&quot;justify&quot; style=&quot;font-size: 15px;&quot;&gt;&lt;span style=&quot;font-size: 15px; background-color: rgb(68, 68, 68);&quot;&gt;E = • E + T&lt;/span&gt;&lt;/div&gt;&lt;div align=&quot;justify&quot; style=&quot;font-size: 15px;&quot;&gt;&lt;span style=&quot;text-align: left; background-color: rgb(74, 74, 74);&quot;&gt;E = • T&lt;/span&gt;&lt;span style=&quot;font-size: 15px; background-color: rgb(68, 68, 68);&quot;&gt;&lt;br&gt;&lt;/span&gt;&lt;/div&gt;&lt;div align=&quot;justify&quot; style=&quot;font-size: 15px;&quot;&gt;&lt;span style=&quot;background-color: rgb(85, 85, 85); font-size: 15px;&quot;&gt;T = • T * F&lt;/span&gt;&lt;/div&gt;&lt;div align=&quot;justify&quot; style=&quot;font-size: 15px;&quot;&gt;&lt;span style=&quot;background-color: rgb(119, 119, 119); font-size: 15px;&quot;&gt;T = • F&lt;/span&gt;&lt;/div&gt;&lt;div align=&quot;justify&quot; style=&quot;font-size: 15px;&quot;&gt;&lt;span style=&quot;background-color: rgb(153, 153, 153); font-size: 15px;&quot;&gt;F = • a&lt;/span&gt;&lt;/div&gt;&lt;div align=&quot;justify&quot; style=&quot;font-size: 15px;&quot;&gt;&lt;span style=&quot;background-color: rgb(187, 187, 187); font-size: 15px;&quot;&gt;F = • ( E )&lt;/span&gt;&lt;/div&gt;&lt;div align=&quot;justify&quot; style=&quot;font-size: 15px;&quot;&gt;&lt;span style=&quot;background-color: rgb(187, 187, 187); font-size: 15px;&quot;&gt;F = ( • E )&lt;/span&gt;&lt;/div&gt;" style="rounded=0;whiteSpace=wrap;html=1;fontFamily=monospace;spacingLeft=0;fontSize=15;fillColor=#333333;fontColor=#FFFFFF;verticalAlign=top;" parent="1" vertex="1">
          <mxGeometry x="44.69" y="276.45" width="111.19" height="175.93" as="geometry" />
        </mxCell>
        <mxCell id="v0S2vT5wZ2QxvqDgRi7f-15" style="rounded=0;orthogonalLoop=1;jettySize=auto;html=1;entryX=0;entryY=0.037;entryDx=0;entryDy=0;entryPerimeter=0;fontFamily=monospace;spacingLeft=0;fontSize=15;fontColor=#FFFFFF;" parent="1" target="v0S2vT5wZ2QxvqDgRi7f-13" edge="1">
          <mxGeometry relative="1" as="geometry">
            <mxPoint x="322.66101694915255" y="168.4432352941177" as="sourcePoint" />
          </mxGeometry>
        </mxCell>
        <mxCell id="v0S2vT5wZ2QxvqDgRi7f-57" value="&lt;div style=&quot;font-size: 15px;&quot;&gt;+&lt;/div&gt;" style="edgeLabel;html=1;align=center;verticalAlign=middle;resizable=0;points=[];rotation=-90;rounded=0;fontFamily=monospace;spacingLeft=0;fontSize=15;labelBackgroundColor=#444444;fontColor=#FFFFFF;" parent="v0S2vT5wZ2QxvqDgRi7f-15" vertex="1" connectable="0">
          <mxGeometry x="-0.0844" relative="1" as="geometry">
            <mxPoint x="1" y="1" as="offset" />
          </mxGeometry>
        </mxCell>
        <mxCell id="v0S2vT5wZ2QxvqDgRi7f-4" value="&lt;div style=&quot;font-size: 15px;&quot;&gt;S1&lt;/div&gt;&lt;div align=&quot;left&quot; style=&quot;font-size: 15px;&quot;&gt;&lt;br style=&quot;font-size: 15px;&quot;&gt;&lt;/div&gt;&lt;div align=&quot;left&quot; style=&quot;font-size: 15px;&quot;&gt;S = E •&lt;/div&gt;&lt;div align=&quot;left&quot; style=&quot;font-size: 15px;&quot;&gt;&lt;span style=&quot;font-size: 15px; background-color: rgb(68, 68, 68);&quot;&gt;E = E&amp;nbsp;• + T&lt;/span&gt;&lt;/div&gt;" style="rounded=0;whiteSpace=wrap;html=1;fontFamily=monospace;spacingLeft=0;fontSize=15;fillColor=#333333;fontColor=#FFFFFF;verticalAlign=top;" parent="1" vertex="1">
          <mxGeometry x="211.47457627118644" y="86.44191176470589" width="111.1864406779661" height="97.28970588235295" as="geometry" />
        </mxCell>
        <mxCell id="v0S2vT5wZ2QxvqDgRi7f-6" value="&lt;div style=&quot;font-size: 15px;&quot;&gt;S3&lt;/div&gt;&lt;div align=&quot;left&quot; style=&quot;font-size: 15px;&quot;&gt;&lt;br style=&quot;font-size: 15px;&quot;&gt;&lt;/div&gt;&lt;div align=&quot;left&quot; style=&quot;font-size: 15px;&quot;&gt;&lt;span style=&quot;background-color: rgb(119, 119, 119); font-size: 15px;&quot;&gt;T = F •&lt;/span&gt;&lt;/div&gt;" style="rounded=0;whiteSpace=wrap;html=1;fontFamily=monospace;spacingLeft=0;fontSize=15;fillColor=#333333;fontColor=#FFFFFF;" parent="1" vertex="1">
          <mxGeometry x="378.2542372881355" y="37.79705882352941" width="111.1864406779661" height="69.49264705882354" as="geometry" />
        </mxCell>
        <mxCell id="v0S2vT5wZ2QxvqDgRi7f-22" style="edgeStyle=orthogonalEdgeStyle;rounded=0;orthogonalLoop=1;jettySize=auto;html=1;fontFamily=monospace;spacingLeft=0;fontSize=15;fontColor=#FFFFFF;" parent="1" source="v0S2vT5wZ2QxvqDgRi7f-8" target="v0S2vT5wZ2QxvqDgRi7f-20" edge="1">
          <mxGeometry relative="1" as="geometry">
            <Array as="points">
              <mxPoint x="380" y="364" />
              <mxPoint x="380" y="364" />
            </Array>
          </mxGeometry>
        </mxCell>
        <mxCell id="v0S2vT5wZ2QxvqDgRi7f-47" value="*" style="edgeLabel;html=1;align=center;verticalAlign=middle;resizable=0;points=[];rounded=0;fontFamily=monospace;spacingLeft=0;fontSize=15;labelBackgroundColor=#444444;fontColor=#FFFFFF;" parent="v0S2vT5wZ2QxvqDgRi7f-22" vertex="1" connectable="0">
          <mxGeometry x="0.5083" relative="1" as="geometry">
            <mxPoint y="1" as="offset" />
          </mxGeometry>
        </mxCell>
        <mxCell id="v0S2vT5wZ2QxvqDgRi7f-8" value="&lt;div style=&quot;font-size: 15px;&quot;&gt;S2&lt;/div&gt;&lt;div align=&quot;left&quot; style=&quot;font-size: 15px;&quot;&gt;&lt;br style=&quot;font-size: 15px;&quot;&gt;&lt;/div&gt;&lt;div align=&quot;left&quot; style=&quot;font-size: 15px;&quot;&gt;&lt;span style=&quot;background-color: rgb(74, 74, 74);&quot;&gt;E = T&amp;nbsp;&lt;/span&gt;&lt;span style=&quot;background-color: rgb(74, 74, 74); text-align: center;&quot;&gt;•&lt;/span&gt;&lt;br&gt;&lt;/div&gt;&lt;div align=&quot;left&quot; style=&quot;font-size: 15px;&quot;&gt;&lt;span style=&quot;background-color: rgb(85, 85, 85); font-size: 15px;&quot;&gt;T = T • * F&lt;/span&gt;&lt;/div&gt;" style="rounded=0;whiteSpace=wrap;html=1;fontFamily=monospace;spacingLeft=0;fontSize=15;fillColor=#333333;fontColor=#FFFFFF;" parent="1" vertex="1">
          <mxGeometry x="211.47" y="315.77" width="111.19" height="84.23" as="geometry" />
        </mxCell>
        <mxCell id="v0S2vT5wZ2QxvqDgRi7f-10" value="&lt;div style=&quot;font-size: 15px;&quot;&gt;S4&lt;br style=&quot;font-size: 15px;&quot;&gt;&lt;/div&gt;&lt;div align=&quot;left&quot; style=&quot;font-size: 15px;&quot;&gt;&lt;br style=&quot;font-size: 15px;&quot;&gt;&lt;/div&gt;&lt;div align=&quot;left&quot; style=&quot;font-size: 15px;&quot;&gt;&lt;span style=&quot;background-color: rgb(153, 153, 153); font-size: 15px;&quot;&gt;F = a •&lt;/span&gt;&lt;/div&gt;" style="rounded=0;whiteSpace=wrap;html=1;fontFamily=monospace;spacingLeft=0;fontSize=15;fillColor=#333333;fontColor=#FFFFFF;" parent="1" vertex="1">
          <mxGeometry x="211.47457627118644" y="204.5794117647059" width="111.1864406779661" height="69.49264705882354" as="geometry" />
        </mxCell>
        <mxCell id="v0S2vT5wZ2QxvqDgRi7f-14" style="edgeStyle=orthogonalEdgeStyle;rounded=0;orthogonalLoop=1;jettySize=auto;html=1;entryX=0.5;entryY=1;entryDx=0;entryDy=0;fontFamily=monospace;spacingLeft=0;fontSize=15;fontColor=#FFFFFF;" parent="1" source="v0S2vT5wZ2QxvqDgRi7f-13" target="v0S2vT5wZ2QxvqDgRi7f-6" edge="1">
          <mxGeometry relative="1" as="geometry" />
        </mxCell>
        <mxCell id="v0S2vT5wZ2QxvqDgRi7f-34" value="F" style="edgeLabel;html=1;align=center;verticalAlign=middle;resizable=0;points=[];rounded=0;fontFamily=monospace;spacingLeft=0;fontSize=15;labelBackgroundColor=#444444;fontColor=#FFFFFF;" parent="v0S2vT5wZ2QxvqDgRi7f-14" vertex="1" connectable="0">
          <mxGeometry x="-0.35" relative="1" as="geometry">
            <mxPoint as="offset" />
          </mxGeometry>
        </mxCell>
        <mxCell id="v0S2vT5wZ2QxvqDgRi7f-16" style="edgeStyle=orthogonalEdgeStyle;rounded=0;orthogonalLoop=1;jettySize=auto;html=1;exitX=0;exitY=0.5;exitDx=0;exitDy=0;entryX=1;entryY=0.5;entryDx=0;entryDy=0;fontFamily=monospace;spacingLeft=0;fontSize=15;fontColor=#FFFFFF;" parent="1" source="v0S2vT5wZ2QxvqDgRi7f-13" target="v0S2vT5wZ2QxvqDgRi7f-10" edge="1">
          <mxGeometry relative="1" as="geometry" />
        </mxCell>
        <mxCell id="v0S2vT5wZ2QxvqDgRi7f-39" value="a" style="edgeLabel;html=1;align=center;verticalAlign=middle;resizable=0;points=[];rounded=0;fontFamily=monospace;spacingLeft=0;fontSize=15;labelBackgroundColor=#444444;fontColor=#FFFFFF;" parent="v0S2vT5wZ2QxvqDgRi7f-16" vertex="1" connectable="0">
          <mxGeometry x="-0.1" y="4" relative="1" as="geometry">
            <mxPoint y="-4" as="offset" />
          </mxGeometry>
        </mxCell>
        <mxCell id="v0S2vT5wZ2QxvqDgRi7f-19" style="edgeStyle=orthogonalEdgeStyle;rounded=0;orthogonalLoop=1;jettySize=auto;html=1;exitX=1;exitY=0.5;exitDx=0;exitDy=0;entryX=0;entryY=0.5;entryDx=0;entryDy=0;fontFamily=monospace;spacingLeft=0;fontSize=15;fontColor=#FFFFFF;" parent="1" source="v0S2vT5wZ2QxvqDgRi7f-13" target="v0S2vT5wZ2QxvqDgRi7f-18" edge="1">
          <mxGeometry relative="1" as="geometry">
            <Array as="points">
              <mxPoint x="489.4406779661017" y="218.47794117647064" />
            </Array>
          </mxGeometry>
        </mxCell>
        <mxCell id="v0S2vT5wZ2QxvqDgRi7f-49" value="T" style="edgeLabel;html=1;align=center;verticalAlign=middle;resizable=0;points=[];rounded=0;fontFamily=monospace;spacingLeft=0;fontSize=15;labelBackgroundColor=#444444;fontColor=#FFFFFF;" parent="v0S2vT5wZ2QxvqDgRi7f-19" vertex="1" connectable="0">
          <mxGeometry x="0.2121" relative="1" as="geometry">
            <mxPoint as="offset" />
          </mxGeometry>
        </mxCell>
        <mxCell id="v0S2vT5wZ2QxvqDgRi7f-53" style="rounded=0;orthogonalLoop=1;jettySize=auto;html=1;exitX=0.001;exitY=0.838;exitDx=0;exitDy=0;exitPerimeter=0;entryX=1.003;entryY=0.116;entryDx=0;entryDy=0;entryPerimeter=0;fontFamily=monospace;spacingLeft=0;fontSize=15;fontColor=#FFFFFF;edgeStyle=orthogonalEdgeStyle;" parent="1" source="v0S2vT5wZ2QxvqDgRi7f-13" target="v0S2vT5wZ2QxvqDgRi7f-2" edge="1">
          <mxGeometry relative="1" as="geometry">
            <Array as="points">
              <mxPoint x="380" y="291" />
              <mxPoint x="380" y="297" />
            </Array>
          </mxGeometry>
        </mxCell>
        <mxCell id="v0S2vT5wZ2QxvqDgRi7f-54" value="(" style="edgeLabel;html=1;align=center;verticalAlign=middle;resizable=0;points=[];rounded=0;fontFamily=monospace;spacingLeft=0;fontSize=15;labelBackgroundColor=#444444;fontColor=#FFFFFF;" parent="v0S2vT5wZ2QxvqDgRi7f-53" vertex="1" connectable="0">
          <mxGeometry x="-0.1726" relative="1" as="geometry">
            <mxPoint x="-22" as="offset" />
          </mxGeometry>
        </mxCell>
        <mxCell id="v0S2vT5wZ2QxvqDgRi7f-13" value="&lt;div style=&quot;font-size: 15px;&quot;&gt;S6&lt;/div&gt;&lt;div align=&quot;left&quot; style=&quot;font-size: 15px;&quot;&gt;&lt;br style=&quot;font-size: 15px;&quot;&gt;&lt;/div&gt;&lt;div align=&quot;left&quot; style=&quot;font-size: 15px;&quot;&gt;&lt;span style=&quot;font-size: 15px; background-color: rgb(68, 68, 68);&quot;&gt;E = E + • T&lt;/span&gt;&lt;/div&gt;&lt;div align=&quot;left&quot; style=&quot;font-size: 15px;&quot;&gt;&lt;span style=&quot;background-color: rgb(85, 85, 85); font-size: 15px;&quot;&gt;T = • T * F&lt;/span&gt;&lt;/div&gt;&lt;div align=&quot;left&quot; style=&quot;font-size: 15px;&quot;&gt;&lt;span style=&quot;background-color: rgb(119, 119, 119); font-size: 15px;&quot;&gt;T = • F&lt;/span&gt;&lt;/div&gt;&lt;div align=&quot;left&quot; style=&quot;font-size: 15px;&quot;&gt;&lt;span style=&quot;background-color: rgb(153, 153, 153); font-size: 15px;&quot;&gt;F = • a&lt;/span&gt;&lt;/div&gt;&lt;div align=&quot;left&quot; style=&quot;font-size: 15px;&quot;&gt;&lt;span style=&quot;background-color: rgb(187, 187, 187); font-size: 15px;&quot;&gt;F = • ( E )&lt;/span&gt;&lt;br style=&quot;font-size: 15px;&quot;&gt;&lt;/div&gt;" style="rounded=0;whiteSpace=wrap;html=1;fontFamily=monospace;spacingLeft=0;fontSize=15;fillColor=#333333;fontColor=#FFFFFF;" parent="1" vertex="1">
          <mxGeometry x="378.2542372881355" y="162.88382352941179" width="111.1864406779661" height="152.88382352941179" as="geometry" />
        </mxCell>
        <mxCell id="v0S2vT5wZ2QxvqDgRi7f-21" style="edgeStyle=orthogonalEdgeStyle;rounded=0;orthogonalLoop=1;jettySize=auto;html=1;entryX=0.5;entryY=0;entryDx=0;entryDy=0;fontFamily=monospace;spacingLeft=0;fontSize=15;fontColor=#FFFFFF;" parent="1" source="v0S2vT5wZ2QxvqDgRi7f-18" target="v0S2vT5wZ2QxvqDgRi7f-20" edge="1">
          <mxGeometry relative="1" as="geometry" />
        </mxCell>
        <mxCell id="v0S2vT5wZ2QxvqDgRi7f-50" value="*" style="edgeLabel;html=1;align=center;verticalAlign=middle;resizable=0;points=[];rounded=0;fontFamily=monospace;spacingLeft=0;fontSize=15;fontColor=#FFFFFF;labelBackgroundColor=#444444;" parent="v0S2vT5wZ2QxvqDgRi7f-21" vertex="1" connectable="0">
          <mxGeometry x="-0.6552" relative="1" as="geometry">
            <mxPoint y="10" as="offset" />
          </mxGeometry>
        </mxCell>
        <mxCell id="v0S2vT5wZ2QxvqDgRi7f-18" value="&lt;div style=&quot;font-size: 15px;&quot;&gt;S9&lt;/div&gt;&lt;div align=&quot;left&quot; style=&quot;font-size: 15px;&quot;&gt;&lt;br style=&quot;font-size: 15px;&quot;&gt;&lt;/div&gt;&lt;div align=&quot;left&quot; style=&quot;font-size: 15px;&quot;&gt;&lt;span style=&quot;font-size: 15px; background-color: rgb(68, 68, 68);&quot;&gt;E = E + T •&lt;/span&gt;&lt;/div&gt;&lt;div align=&quot;left&quot; style=&quot;font-size: 15px;&quot;&gt;&lt;span style=&quot;background-color: rgb(85, 85, 85); font-size: 15px;&quot;&gt;T = T&amp;nbsp;• * F&lt;/span&gt;&lt;/div&gt;" style="rounded=0;whiteSpace=wrap;html=1;fontFamily=monospace;spacingLeft=0;fontSize=15;fillColor=#333333;fontColor=#FFFFFF;" parent="1" vertex="1">
          <mxGeometry x="545.0338983050847" y="169.8330882352941" width="111.1864406779661" height="97.28970588235295" as="geometry" />
        </mxCell>
        <mxCell id="v0S2vT5wZ2QxvqDgRi7f-24" style="edgeStyle=orthogonalEdgeStyle;rounded=0;orthogonalLoop=1;jettySize=auto;html=1;entryX=0;entryY=0.5;entryDx=0;entryDy=0;fontFamily=monospace;spacingLeft=0;fontSize=15;fontColor=#FFFFFF;" parent="1" source="v0S2vT5wZ2QxvqDgRi7f-20" target="v0S2vT5wZ2QxvqDgRi7f-23" edge="1">
          <mxGeometry relative="1" as="geometry" />
        </mxCell>
        <mxCell id="v0S2vT5wZ2QxvqDgRi7f-48" value="F" style="edgeLabel;html=1;align=center;verticalAlign=middle;resizable=0;points=[];rounded=0;fontFamily=monospace;spacingLeft=0;fontSize=15;labelBackgroundColor=#444444;fontColor=#FFFFFF;" parent="v0S2vT5wZ2QxvqDgRi7f-24" vertex="1" connectable="0">
          <mxGeometry x="0.0167" y="-1" relative="1" as="geometry">
            <mxPoint as="offset" />
          </mxGeometry>
        </mxCell>
        <mxCell id="v0S2vT5wZ2QxvqDgRi7f-40" style="edgeStyle=orthogonalEdgeStyle;rounded=0;orthogonalLoop=1;jettySize=auto;html=1;exitX=0;exitY=0.25;exitDx=0;exitDy=0;entryX=1;entryY=0.75;entryDx=0;entryDy=0;fontFamily=monospace;spacingLeft=0;fontSize=15;fontColor=#FFFFFF;" parent="1" source="v0S2vT5wZ2QxvqDgRi7f-20" target="v0S2vT5wZ2QxvqDgRi7f-10" edge="1">
          <mxGeometry relative="1" as="geometry">
            <Array as="points">
              <mxPoint x="350.45762711864404" y="336.61544117647065" />
              <mxPoint x="350.45762711864404" y="257.3938235294118" />
            </Array>
          </mxGeometry>
        </mxCell>
        <mxCell id="v0S2vT5wZ2QxvqDgRi7f-41" value="a" style="edgeLabel;html=1;align=center;verticalAlign=middle;resizable=0;points=[];rounded=0;fontFamily=monospace;spacingLeft=0;fontSize=15;labelBackgroundColor=#444444;fontColor=#FFFFFF;" parent="v0S2vT5wZ2QxvqDgRi7f-40" vertex="1" connectable="0">
          <mxGeometry x="0.7195" y="1" relative="1" as="geometry">
            <mxPoint as="offset" />
          </mxGeometry>
        </mxCell>
        <mxCell id="iERBxF1EAUFehvLkgGPC-3" style="edgeStyle=orthogonalEdgeStyle;shape=connector;rounded=0;orthogonalLoop=1;jettySize=auto;html=1;exitX=0;exitY=0.75;exitDx=0;exitDy=0;entryX=1;entryY=0.75;entryDx=0;entryDy=0;strokeColor=default;align=center;verticalAlign=middle;fontFamily=monospace;fontSize=15;fontColor=default;labelBackgroundColor=#444444;resizable=0;endArrow=classic;" edge="1" parent="1" source="v0S2vT5wZ2QxvqDgRi7f-20" target="v0S2vT5wZ2QxvqDgRi7f-2">
          <mxGeometry relative="1" as="geometry" />
        </mxCell>
        <mxCell id="iERBxF1EAUFehvLkgGPC-4" value="(" style="edgeLabel;html=1;align=center;verticalAlign=middle;resizable=0;points=[];fontFamily=monospace;fontSize=15;fontColor=default;labelBackgroundColor=#444444;fillColor=none;gradientColor=none;" vertex="1" connectable="0" parent="iERBxF1EAUFehvLkgGPC-3">
          <mxGeometry x="-0.8575" y="1" relative="1" as="geometry">
            <mxPoint y="-4" as="offset" />
          </mxGeometry>
        </mxCell>
        <mxCell id="v0S2vT5wZ2QxvqDgRi7f-20" value="&lt;div style=&quot;font-size: 15px;&quot;&gt;S7&lt;/div&gt;&lt;div align=&quot;left&quot; style=&quot;font-size: 15px;&quot;&gt;&lt;br style=&quot;font-size: 15px;&quot;&gt;&lt;/div&gt;&lt;div align=&quot;left&quot; style=&quot;font-size: 15px;&quot;&gt;&lt;span style=&quot;background-color: rgb(85, 85, 85); font-size: 15px;&quot;&gt;T = T * • F&lt;/span&gt;&lt;/div&gt;&lt;div align=&quot;left&quot; style=&quot;font-size: 15px;&quot;&gt;&lt;span style=&quot;background-color: rgb(153, 153, 153); font-size: 15px;&quot;&gt;F = • a&lt;/span&gt;&lt;/div&gt;&lt;div align=&quot;left&quot; style=&quot;font-size: 15px;&quot;&gt;&lt;span style=&quot;background-color: rgb(187, 187, 187); font-size: 15px;&quot;&gt;F = • ( E )&lt;/span&gt;&lt;br style=&quot;font-size: 15px;&quot;&gt;&lt;/div&gt;" style="rounded=0;whiteSpace=wrap;html=1;fontFamily=monospace;spacingLeft=0;fontSize=15;fillColor=#333333;fontColor=#FFFFFF;" parent="1" vertex="1">
          <mxGeometry x="545.0338983050847" y="308.8183823529412" width="111.1864406779661" height="111.18823529411766" as="geometry" />
        </mxCell>
        <mxCell id="v0S2vT5wZ2QxvqDgRi7f-23" value="&lt;div style=&quot;font-size: 15px;&quot;&gt;S10&lt;/div&gt;&lt;div align=&quot;left&quot; style=&quot;font-size: 15px;&quot;&gt;&lt;br style=&quot;font-size: 15px;&quot;&gt;&lt;/div&gt;&lt;div align=&quot;left&quot; style=&quot;font-size: 15px;&quot;&gt;&lt;span style=&quot;background-color: rgb(85, 85, 85); font-size: 15px;&quot;&gt;T = T * F •&lt;/span&gt;&lt;/div&gt;" style="rounded=0;whiteSpace=wrap;html=1;fontFamily=monospace;spacingLeft=0;fontSize=15;fillColor=#333333;fontColor=#FFFFFF;" parent="1" vertex="1">
          <mxGeometry x="711.8135593220339" y="329.6661764705882" width="111.1864406779661" height="69.49264705882354" as="geometry" />
        </mxCell>
        <mxCell id="v0S2vT5wZ2QxvqDgRi7f-26" style="edgeStyle=orthogonalEdgeStyle;rounded=0;orthogonalLoop=1;jettySize=auto;html=1;entryX=0.5;entryY=1;entryDx=0;entryDy=0;fontFamily=monospace;spacingLeft=0;fontSize=15;fontColor=#FFFFFF;" parent="1" source="v0S2vT5wZ2QxvqDgRi7f-25" target="v0S2vT5wZ2QxvqDgRi7f-13" edge="1">
          <mxGeometry relative="1" as="geometry" />
        </mxCell>
        <mxCell id="v0S2vT5wZ2QxvqDgRi7f-46" value="+" style="edgeLabel;html=1;align=center;verticalAlign=middle;resizable=0;points=[];rounded=0;fontFamily=monospace;spacingLeft=0;fontSize=15;labelBackgroundColor=#444444;fontColor=#FFFFFF;" parent="v0S2vT5wZ2QxvqDgRi7f-26" vertex="1" connectable="0">
          <mxGeometry y="-1" relative="1" as="geometry">
            <mxPoint x="-1" y="-8" as="offset" />
          </mxGeometry>
        </mxCell>
        <mxCell id="v0S2vT5wZ2QxvqDgRi7f-29" style="edgeStyle=orthogonalEdgeStyle;rounded=0;orthogonalLoop=1;jettySize=auto;html=1;exitX=1;exitY=0.5;exitDx=0;exitDy=0;entryX=0;entryY=0.5;entryDx=0;entryDy=0;fontFamily=monospace;spacingLeft=0;fontSize=15;fontColor=#FFFFFF;" parent="1" source="v0S2vT5wZ2QxvqDgRi7f-25" target="v0S2vT5wZ2QxvqDgRi7f-28" edge="1">
          <mxGeometry relative="1" as="geometry">
            <Array as="points">
              <mxPoint x="489.4406779661017" y="447.8036764705883" />
            </Array>
          </mxGeometry>
        </mxCell>
        <mxCell id="v0S2vT5wZ2QxvqDgRi7f-45" value=")" style="edgeLabel;html=1;align=center;verticalAlign=middle;resizable=0;points=[];rounded=0;fontFamily=monospace;spacingLeft=0;fontSize=15;labelBackgroundColor=#444444;fontColor=#FFFFFF;" parent="v0S2vT5wZ2QxvqDgRi7f-29" vertex="1" connectable="0">
          <mxGeometry x="0.0588" y="-2" relative="1" as="geometry">
            <mxPoint y="-2" as="offset" />
          </mxGeometry>
        </mxCell>
        <mxCell id="v0S2vT5wZ2QxvqDgRi7f-25" value="&lt;div style=&quot;font-size: 15px;&quot;&gt;S8&lt;/div&gt;&lt;div align=&quot;left&quot; style=&quot;font-size: 15px;&quot;&gt;&lt;br style=&quot;font-size: 15px;&quot;&gt;&lt;/div&gt;&lt;div align=&quot;left&quot; style=&quot;font-size: 15px;&quot;&gt;&lt;span style=&quot;font-size: 15px; background-color: rgb(68, 68, 68);&quot;&gt;E = E • + T&lt;/span&gt;&lt;/div&gt;&lt;div align=&quot;left&quot; style=&quot;font-size: 15px;&quot;&gt;&lt;span style=&quot;background-color: rgb(187, 187, 187); font-size: 15px;&quot;&gt;F = ( E • )&lt;/span&gt;&lt;/div&gt;" style="rounded=0;whiteSpace=wrap;html=1;fontFamily=monospace;spacingLeft=0;fontSize=15;fillColor=#333333;fontColor=#FFFFFF;" parent="1" vertex="1">
          <mxGeometry x="378.2542372881355" y="399.1602941176471" width="111.1864406779661" height="97.28970588235295" as="geometry" />
        </mxCell>
        <mxCell id="v0S2vT5wZ2QxvqDgRi7f-28" value="&lt;div style=&quot;font-size: 15px;&quot;&gt;S11&lt;/div&gt;&lt;div style=&quot;font-size: 15px;&quot;&gt;&lt;br style=&quot;font-size: 15px;&quot;&gt;&lt;/div&gt;&lt;div style=&quot;font-size: 15px;&quot;&gt;&lt;span style=&quot;background-color: rgb(187, 187, 187); font-size: 15px;&quot;&gt;F = ( E ) •&lt;/span&gt;&lt;/div&gt;" style="rounded=0;whiteSpace=wrap;html=1;fontFamily=monospace;spacingLeft=0;fontSize=15;fillColor=#333333;fontColor=#FFFFFF;" parent="1" vertex="1">
          <mxGeometry x="711.8135593220339" y="413.0573529411765" width="111.1864406779661" height="69.49264705882354" as="geometry" />
        </mxCell>
        <mxCell id="PdpzlLU-6RWncNeIdLnd-1" style="edgeStyle=orthogonalEdgeStyle;shape=connector;rounded=0;orthogonalLoop=1;jettySize=auto;html=1;exitX=0.75;exitY=1;exitDx=0;exitDy=0;entryX=0.25;entryY=1;entryDx=0;entryDy=0;strokeColor=default;align=center;verticalAlign=middle;fontFamily=monospace;fontSize=15;fontColor=default;labelBackgroundColor=#444444;resizable=0;endArrow=classic;curved=1;" parent="1" source="v0S2vT5wZ2QxvqDgRi7f-2" target="v0S2vT5wZ2QxvqDgRi7f-2" edge="1">
          <mxGeometry relative="1" as="geometry">
            <Array as="points">
              <mxPoint x="128" y="480" />
              <mxPoint x="72" y="480" />
            </Array>
          </mxGeometry>
        </mxCell>
        <mxCell id="PdpzlLU-6RWncNeIdLnd-2" value="(" style="edgeLabel;html=1;align=center;verticalAlign=middle;resizable=0;points=[];fontFamily=monospace;fontSize=15;fontColor=default;labelBackgroundColor=#444444;fillColor=none;gradientColor=none;" parent="PdpzlLU-6RWncNeIdLnd-1" vertex="1" connectable="0">
          <mxGeometry x="0.0942" y="2" relative="1" as="geometry">
            <mxPoint x="5" y="-5" as="offset" />
          </mxGeometry>
        </mxCell>
      </root>
    </mxGraphModel>
  </diagram>
</mxfile>
